# xmcd CD database file
#
# Track frame offsets:
#	150
#	13174
#	29318
#	39054
#	49013
#	63263
#	75785
#	87025
#	106402
#	119258
#	131557
#	144636
#	155375
#	164832
#	181757
#	204199
#	218616
#	233534
#	247171
#
# Disc length: 3442 seconds
#
# Revision: 0
# Processed by: cddbd v1.5.2PL0 Copyright (c) Steve Scherf et al.
# Submitted via: CDex 1.70beta2
#
DISCID=eb0d7013
DTITLE=Karel Vlach - Western
DYEAR=2009
DGENRE=Country
TTITLE0=Dostavnik
TTITLE1=Velka zeme
TTITLE2=Jak jsme se dostali na zapad
TTITLE3=Sedm statecnych
TTITLE4=Apaci
TTITLE5=Pisen v sedle
TTITLE6=Bud porad se mnou
TTITLE7=Zelene plane
TTITLE8=Jezdci v oblacich
TTITLE9=Hodny, zly a osklivy
TTITLE10=Harmonika
TTITLE11=Par dolaru navic
TTITLE12=Koleje
TTITLE13=Sedm dostavniku
TTITLE14=Cervena reka
TTITLE15=Poklad na stribrnem jezere
TTITLE16=Ribanna
TTITLE17=Vinnetou
TTITLE18=Na sever od Aljasky
EXTD=YEAR: 2009
EXTT0=
EXTT1=
EXTT2=
EXTT3=
EXTT4=
EXTT5=
EXTT6=
EXTT7=
EXTT8=
EXTT9=
EXTT10=
EXTT11=
EXTT12=
EXTT13=
EXTT14=
EXTT15=
EXTT16=
EXTT17=
EXTT18=
PLAYORDER=
